<svg xmlns="http://www.w3.org/2000/svg" xmlns:xlink="http://www.w3.org/1999/xlink" width="500" zoomAndPan="magnify" viewBox="0 0 375 374.999991" height="500" preserveAspectRatio="xMidYMid meet" version="1.0"><defs><clipPath id="id1"><path d="M 230.246094 245.753906 L 288.511719 245.753906 L 288.511719 304.015625 L 230.246094 304.015625 Z M 230.246094 245.753906 " clip-rule="nonzero"/></clipPath><clipPath id="id2"><path d="M 96 11.726562 L 243 11.726562 L 243 71 L 96 71 Z M 96 11.726562 " clip-rule="nonzero"/></clipPath><clipPath id="id3"><path d="M 198 216 L 346 216 L 346 363.476562 L 198 363.476562 Z M 198 216 " clip-rule="nonzero"/></clipPath><clipPath id="id4"><path d="M 37.5 41 L 302 41 L 302 363.476562 L 37.5 363.476562 Z M 37.5 41 " clip-rule="nonzero"/></clipPath></defs><path stroke-linecap="round" transform="matrix(2.697467, 0, 0, 2.697467, 227.010518, 243.594154)" fill="none" stroke-linejoin="round" d="M 13.625788 6.582995 L 13.625788 10.045445 L 10.46165 10.045445 L 10.46165 6.582995 L 7.274342 6.582995 L 7.274342 16.663344 L 10.46165 16.663344 L 10.46165 13.200894 L 13.625788 13.200894 L 13.625788 16.663344 L 16.782685 16.663344 L 16.782685 6.582995 Z M 13.625788 6.582995 " stroke="#000000" stroke-width="1" stroke-opacity="1" stroke-miterlimit="4"/><path stroke-linecap="round" transform="matrix(2.697467, 0, 0, 2.697467, 227.010518, 243.594154)" fill="none" stroke-linejoin="round" d="M 10.904774 13.200894 L 14.068912 13.200894 " stroke="#000000" stroke-width="1" stroke-opacity="1" stroke-miterlimit="4"/><path stroke-linecap="round" transform="matrix(2.697467, 0, 0, 2.697467, 227.010518, 243.594154)" fill="none" stroke-linejoin="round" d="M 13.182664 10.045445 L 10.018526 10.045445 " stroke="#000000" stroke-width="1" stroke-opacity="1" stroke-miterlimit="4"/><g clip-path="url(#id1)"><path stroke-linecap="round" transform="matrix(2.697467, 0, 0, 2.697467, 227.010518, 243.594154)" fill="none" stroke-linejoin="round" d="M 22.344907 19.941884 C 22.344907 20.072214 22.331874 20.201097 22.305808 20.328531 C 22.279741 20.457414 22.240642 20.580504 22.189958 20.700698 C 22.139274 20.820891 22.077005 20.935293 22.004599 21.042453 C 21.930745 21.151062 21.848202 21.250982 21.755523 21.342214 C 21.661395 21.433445 21.561475 21.51454 21.451418 21.585498 C 21.342809 21.657904 21.22696 21.717276 21.106766 21.765064 C 20.985124 21.8143 20.860586 21.850503 20.733151 21.873673 C 20.604269 21.898291 20.475386 21.908428 20.345056 21.90698 L 3.700387 21.90698 C 3.571504 21.90698 3.442622 21.893947 3.316636 21.869329 C 3.190649 21.844711 3.067559 21.80706 2.947366 21.757824 C 2.82862 21.708588 2.715667 21.647767 2.608506 21.575361 C 2.501345 21.504403 2.401425 21.423309 2.310194 21.332077 C 2.218962 21.240846 2.137868 21.140925 2.065462 21.033765 C 1.994504 20.926604 1.933683 20.813651 1.884447 20.693457 C 1.835211 20.574711 1.79756 20.451621 1.771494 20.325635 C 1.746876 20.198201 1.733843 20.070766 1.733843 19.941884 L 1.733843 3.300111 C 1.733843 3.171229 1.746876 3.042346 1.771494 2.914912 C 1.79756 2.788925 1.833763 2.664387 1.882999 2.545642 C 1.932235 2.425448 1.993056 2.311046 2.065462 2.203886 C 2.136419 2.095277 2.217514 1.995357 2.308745 1.904125 C 2.399977 1.811446 2.499897 1.730351 2.607058 1.657945 C 2.714219 1.585539 2.827172 1.52327 2.945917 1.472586 C 3.066111 1.42335 3.189201 1.384251 3.315188 1.358185 C 3.442622 1.332119 3.570056 1.317638 3.700387 1.317638 L 20.340711 1.317638 C 20.47249 1.316189 20.601373 1.327774 20.730255 1.35384 C 20.859138 1.378458 20.983676 1.41611 21.105318 1.465346 C 21.225512 1.514582 21.341361 1.575403 21.44997 1.647808 C 21.560027 1.720214 21.659947 1.802757 21.754075 1.895437 C 21.846754 1.988116 21.929297 2.088036 22.003151 2.196645 C 22.075557 2.305254 22.137826 2.419655 22.187062 2.541297 C 22.237746 2.661491 22.276845 2.786029 22.301463 2.914912 C 22.327529 3.043794 22.340562 3.172677 22.340562 3.304455 Z M 22.344907 19.941884 " stroke="#000000" stroke-width="1" stroke-opacity="1" stroke-miterlimit="4"/></g><g clip-path="url(#id2)"><path fill="#0096c7" d="M 103.464844 70.476562 L 235.390625 70.476562 C 239.433594 70.476562 242.714844 67.195312 242.714844 63.15625 L 242.714844 48.515625 C 242.714844 36.40625 232.851562 26.554688 220.730469 26.554688 L 194.726562 26.554688 C 189.554688 17.625 179.953125 11.914062 169.425781 11.914062 C 158.902344 11.914062 149.300781 17.625 144.128906 26.554688 L 118.125 26.554688 C 106.003906 26.554688 96.140625 36.40625 96.140625 48.515625 L 96.140625 63.15625 C 96.136719 67.199219 99.421875 70.476562 103.464844 70.476562 Z M 103.464844 70.476562 " fill-opacity="1" fill-rule="nonzero"/></g><g clip-path="url(#id3)"><path fill="#0096c7" d="M 343.183594 350.78125 L 303.503906 311.152344 C 311.214844 301.238281 316.003906 288.945312 316.003906 275.441406 C 316.003906 243.148438 289.710938 216.886719 257.375 216.886719 C 225.039062 216.886719 198.742188 243.148438 198.742188 275.441406 C 198.742188 307.738281 225.039062 334.003906 257.375 334.003906 C 270.886719 334.003906 283.199219 329.21875 293.140625 321.519531 L 332.820312 361.152344 C 334.238281 362.570312 336.117188 363.289062 337.992188 363.289062 C 339.867188 363.289062 341.746094 362.574219 343.183594 361.152344 C 346.042969 358.28125 346.042969 353.65625 343.183594 350.78125 Z M 257.375 319.363281 C 233.132812 319.363281 213.402344 299.664062 213.402344 275.441406 C 213.402344 251.230469 233.132812 231.523438 257.375 231.523438 C 281.621094 231.523438 301.347656 251.230469 301.347656 275.441406 C 301.347656 299.664062 281.621094 319.363281 257.375 319.363281 Z M 257.375 319.363281 " fill-opacity="1" fill-rule="nonzero"/></g><g clip-path="url(#id4)"><path fill="#0096c7" d="M 294.898438 343.976562 C 292.757812 341.839844 289.519531 341.222656 286.761719 342.453125 C 277.414062 346.566406 267.515625 348.644531 257.375 348.644531 C 216.964844 348.644531 184.085938 315.808594 184.085938 275.441406 C 184.085938 235.082031 216.964844 202.242188 257.375 202.242188 C 269.011719 202.242188 280.210938 204.960938 290.660156 210.320312 C 292.9375 211.476562 295.648438 211.390625 297.832031 210.058594 C 300 208.726562 301.332031 206.371094 301.332031 203.804688 L 301.332031 63.15625 C 301.332031 51.050781 291.46875 41.195312 279.347656 41.195312 L 264.691406 41.195312 C 260.644531 41.195312 257.359375 44.476562 257.359375 48.515625 L 257.359375 63.15625 C 257.359375 75.265625 247.496094 85.117188 235.371094 85.117188 L 103.453125 85.117188 C 91.328125 85.117188 81.464844 75.265625 81.464844 63.15625 L 81.464844 48.515625 C 81.464844 44.476562 78.179688 41.195312 74.136719 41.195312 L 59.480469 41.195312 C 47.355469 41.195312 37.492188 51.046875 37.492188 63.15625 L 37.492188 341.328125 C 37.492188 353.433594 47.355469 363.289062 59.480469 363.289062 L 294.007812 363.289062 C 298.050781 363.289062 301.332031 360.007812 301.332031 355.96875 L 301.332031 353.449219 C 301.332031 351.503906 300.558594 349.644531 299.195312 348.265625 Z M 294.898438 343.976562 " fill-opacity="1" fill-rule="nonzero"/></g></svg>