<svg xmlns="http://www.w3.org/2000/svg" xmlns:xlink="http://www.w3.org/1999/xlink" width="500" zoomAndPan="magnify" viewBox="0 0 375 374.999991" height="500" preserveAspectRatio="xMidYMid meet" version="1.0"><defs><clipPath id="id1"><path d="M 99 2.421875 L 253 2.421875 L 253 65 L 99 65 Z M 99 2.421875 " clip-rule="nonzero"/></clipPath><clipPath id="id2"><path d="M 206 218 L 361 218 L 361 372.921875 L 206 372.921875 Z M 206 218 " clip-rule="nonzero"/></clipPath><clipPath id="id3"><path d="M 37.5 33 L 315 33 L 315 372.921875 L 37.5 372.921875 Z M 37.5 33 " clip-rule="nonzero"/></clipPath></defs><g clip-path="url(#id1)"><path fill="#000000" d="M 106.761719 64.304688 L 245.269531 64.304688 C 249.519531 64.304688 252.964844 60.847656 252.964844 56.59375 L 252.964844 41.175781 C 252.964844 28.417969 242.609375 18.042969 229.882812 18.042969 L 202.578125 18.042969 C 197.148438 8.636719 187.066406 2.621094 176.015625 2.621094 C 164.964844 2.621094 154.882812 8.636719 149.453125 18.042969 L 122.148438 18.042969 C 109.421875 18.042969 99.066406 28.417969 99.066406 41.175781 L 99.066406 56.59375 C 99.0625 60.851562 102.511719 64.304688 106.761719 64.304688 Z M 106.761719 64.304688 " fill-opacity="1" fill-rule="nonzero"/></g><g clip-path="url(#id2)"><path fill="#000000" d="M 358.449219 359.546875 L 316.789062 317.804688 C 324.882812 307.363281 329.914062 294.414062 329.914062 280.191406 C 329.914062 246.175781 302.304688 218.515625 268.355469 218.515625 C 234.402344 218.515625 206.796875 246.175781 206.796875 280.191406 C 206.796875 314.210938 234.402344 341.875 268.355469 341.875 C 282.542969 341.875 295.46875 336.835938 305.90625 328.722656 L 347.566406 370.46875 C 349.058594 371.964844 351.03125 372.71875 353 372.71875 C 354.96875 372.71875 356.9375 371.96875 358.449219 370.46875 C 361.449219 367.445312 361.449219 362.570312 358.449219 359.546875 Z M 268.355469 326.453125 C 242.902344 326.453125 222.183594 305.703125 222.183594 280.191406 C 222.183594 254.6875 242.902344 233.929688 268.355469 233.929688 C 293.8125 233.929688 314.523438 254.6875 314.523438 280.191406 C 314.523438 305.703125 293.8125 326.453125 268.355469 326.453125 Z M 268.355469 326.453125 " fill-opacity="1" fill-rule="nonzero"/></g><g clip-path="url(#id3)"><path fill="#000000" d="M 307.753906 352.378906 C 305.503906 350.125 302.105469 349.476562 299.210938 350.773438 C 289.394531 355.105469 279.003906 357.296875 268.355469 357.296875 C 225.925781 357.296875 191.40625 322.710938 191.40625 280.191406 C 191.40625 237.679688 225.925781 203.089844 268.355469 203.089844 C 280.574219 203.089844 292.332031 205.957031 303.304688 211.601562 C 305.691406 212.816406 308.539062 212.726562 310.832031 211.324219 C 313.105469 209.921875 314.507812 207.4375 314.507812 204.738281 L 314.507812 56.59375 C 314.507812 43.84375 304.152344 33.460938 291.425781 33.460938 L 276.035156 33.460938 C 271.789062 33.460938 268.339844 36.917969 268.339844 41.175781 L 268.339844 56.59375 C 268.339844 69.347656 257.984375 79.722656 245.253906 79.722656 L 106.746094 79.722656 C 94.015625 79.722656 83.660156 69.347656 83.660156 56.59375 L 83.660156 41.175781 C 83.660156 36.917969 80.210938 33.460938 75.96875 33.460938 L 60.578125 33.460938 C 47.847656 33.460938 37.492188 43.839844 37.492188 56.59375 L 37.492188 349.585938 C 37.492188 362.339844 47.847656 372.71875 60.578125 372.71875 L 306.816406 372.71875 C 311.058594 372.71875 314.507812 369.265625 314.507812 365.007812 L 314.507812 362.355469 C 314.507812 360.304688 313.695312 358.347656 312.261719 356.894531 Z M 307.753906 352.378906 " fill-opacity="1" fill-rule="nonzero"/></g></svg>